<svg xmlns="http://www.w3.org/2000/svg" version="1.0" viewBox="0 0 1472 1472"><path d="M752 468.2c-4.1 2.2-7.6 4.5-7.8 4.9-.2.5-.8.9-1.2.9-.8 0-19 12-23.5 15.5-1 .8-2.3 1.5-2.7 1.5-.5 0-3.2 1.8-6.1 3.9-2.9 2.2-7.3 5.4-9.9 7.3-11.9 8.5-20.5 14.8-22.8 16.7-3.5 2.9-4 3.3-8.5 6.6-3.6 2.7-7.7 6.1-10.9 9-.6.6-4.7 3.9-9.1 7.4-15.6 12.3-49.5 44.1-59.9 56.2-1.6 1.9-5 5.7-7.5 8.5-5.2 5.6-6.7 7.4-13.1 15.5-2.5 3.1-6.1 7.6-8.1 10-4.8 5.8-17.9 24.8-17.9 26 0 .5-.4.9-.9.9s-1.4 1.2-2 2.7c-1.2 3.3-6.8 13.2-8.6 15.3-1.3 1.5-12.2 23.9-14.4 29.7-1.4 3.3-3.5 5.6-6.3 6.6-1.9.7-7.4-2-25.3-12.5-7.1-4.2-14.1-7.9-15.5-8.3-3.1-.7-6.5 2.2-8.7 7.2-2.6 6.3-3 5.9 23.7 21.5 8 4.7 15.5 9.1 16.7 9.7 3.4 1.7 5.6 6.7 4.9 11-.3 2-1.3 8.7-2.1 15-2.1 16.5-1.2 15.9-23.7 16.3-17.5.3-18 .4-19.9 2.7-2.3 2.8-2.4 7.1-.4 11 1.3 2.5 2.2 3 7.2 3.5 3.2.4 7.8.4 10.3.2 2.5-.3 8.7-.2 13.9.1 11.4.8 12.2 1.5 14.6 12.1.9 4.3 2.1 8.8 2.5 10.2 1.5 4.4 2 9.5 1.4 12.6-.4 2.2-1.7 3.7-4.9 5.5-2.3 1.3-10.3 6.4-17.6 11.4-7.4 4.9-13.8 9.2-14.4 9.5-4.2 2.1-15.4 10.3-15.9 11.6-1.7 4.4 1.4 10.7 6.2 12.5 3 1.1 5.9-.2 18.8-8.8 4.7-3.2 9.4-6.3 10.3-6.8.9-.6 3.2-2.2 5.2-3.8 2-1.5 4-2.7 4.3-2.7s3.2-1.7 6.4-3.9c3.1-2.1 6.7-4.2 7.9-4.5 2.5-.8 6.2.8 8.1 3.6 3.2 4.5 11.7 14.7 16.2 19.5 5.1 5.3 8.4 11.2 11.5 19.8.9 2.7 2.1 5.9 2.6 7 .4 1.1 1.7 4.2 2.7 7 2.5 6.3 9.9 24.8 12 29.7 3 7.1 7.6 5.3 12.8-5 1.1-2 3.6-6.5 5.7-10 2-3.4 3.7-6.5 3.7-6.8 0-1.3 4.6-4.3 6.6-4.4 1.1 0 6.6 1.5 12.1 3.4 13.5 4.5 47.3 12.6 52.9 12.6 9.4 0 26.4 4.7 26.4 7.2 0 .5 1.1 3.1 2.5 6 1.4 2.8 2.5 5.9 2.5 6.8s.4 2 .9 2.5c.5.6 3 6.2 5.4 12.5 8.9 22.7 10.6 25.1 14.7 20.8 1.2-1.3 3-3.9 3.9-5.8 13.9-27.5 21.3-40.2 24.4-42.2 1.7-1.1 7.5-1.7 24-2.2 26.7-.9 54.6-4 66.2-7.5 1.6-.6 5-1.5 7.5-2.2 12.3-3.4 28.2-11.3 40.5-20.2 15.9-11.6 16.6-11.7 24.1-6 2.7 2 5.1 3.9 5.4 4.2 1 1.1 9.6 8.6 13.6 11.8 2.1 1.7 7.1 5.8 10.9 9 3.9 3.2 7.9 6.6 9 7.5s4.4 3.7 7.4 6.2c6.9 5.8 10 6 14.7 1 5.8-6.1 5-8.2-7.5-18.3-5.3-4.4-10.5-8.7-11.6-9.8-1.1-1-4.2-3.6-7-5.8-2.7-2.2-6.1-5-7.5-6.3-1.4-1.2-5.5-4.6-9.2-7.5s-7.5-6.6-8.4-8.4c-1.7-3-1.7-3.4-.1-6.5.9-1.8 5.7-8.7 10.5-15.3 9.7-13.3 10.7-13.9 17.5-10.7 2.3 1.1 8.3 3.9 13.2 6.2 5 2.3 13.1 6.2 18.2 8.6 13.4 6.4 16.6 5.8 19.4-3.3 1.1-3.9 1-4.5-.7-6.4-1-1.2-6.8-4.5-12.9-7.4-6-2.9-16.3-7.8-22.7-10.8-12.4-5.9-14.3-7.8-13.5-13.1.7-4.2 4.5-18.5 5.8-21.7 1.4-3.6 6.4-5.5 17.9-6.9 5.2-.6 15.6-2 23-3s15.8-2.1 18.7-2.5 6.1-1.5 7.2-2.5c2.5-2.1 2.8-7.8.6-12-1.3-2.5-2.2-3-5.2-3-3.7 0-16.6 1.4-28.8 3.1-23.3 3.3-27.7 3.3-29.6-.3-2-3.6-1.4-12.2 1.2-17.5 1.2-2.6 2.5-5 2.8-5.3 1.8-1.6 12.3-24.4 16.6-36 1.5-4.1 3.1-8.4 3.6-9.5.4-1.1 1.6-4.5 2.5-7.5s2.3-7.5 3.1-10c.9-2.5 2.1-7 2.8-10 2.1-8.6 4.6-18.4 5.2-20 .6-1.5 2.8-13.5 3.9-21.5.3-2.2.9-4.9 1.4-6s1.4-7.6 2-14.5c.7-6.9 1.7-17 2.2-22.5 2.7-28.2.1-72.6-5.3-89-1.1-3.3-2.4-7.8-2.9-10-4.2-19.2-6.2-23.5-11.1-23.5-3.1 0-28.4 11.8-35.3 16.5-2 1.4-4.1 2.5-4.6 2.5s-1.5.6-2.2 1.3-2.4 1.8-3.8 2.4c-1.4.7-5.2 2.8-8.5 4.7s-8.5 4.7-11.5 6.2c-3 1.6-7.5 4-10.1 5.5-8.8 5.1-14.5 8.2-25.4 13.9-13.8 7.1-24.8 13.2-25.5 13.9-.3.3-2.7 1.7-5.5 3.1-2.7 1.4-6.7 3.5-8.7 4.7s-9 5-15.5 8.4c-12.8 6.7-15.2 8-25.8 13.9-3.8 2.2-7.7 4.3-8.5 4.7-.8.3-1.7.9-2 1.3-1.2 1.4-8 4-10.7 4-3.8 0-13-4.6-14.4-7.2-.8-1.5-.4-5 1.8-14.6 2.6-12.1 2.8-13.9 2.6-35.7 0-12.9-.6-25.8-1.3-29.5-.7-3.6-1.6-9.1-2-12.3-.9-6.3-2.3-8.7-4.9-8.6-.9 0-5 1.9-9.1 4.1m210.8 48.5c3.3 2.2 5 4 6.3 7.2 2 5 4.9 17 6.4 27.7 2.7 17.8.9 54.3-3.5 74.9-.6 2.7-1.7 7.9-2.4 11.5-2.2 10.7-8.2 32.8-10.6 38.5-.4 1.1-2 5.1-3.6 9-4.3 10.8-8.3 19.2-10.9 23.1l-2.3 3.5-1.6-2.3c-.9-1.2-1.6-2.6-1.6-3.1 0-1-3.2-8.2-7.2-16.2-3.6-7.3-12.7-21.2-18.3-27.9-7.9-9.8-32.8-33.6-35-33.6-.4 0-2-1.4-3.7-3-1.6-1.7-3.6-3-4.4-3s-1.4-.5-1.4-1c0-.6-.5-1-1-1-.6 0-2-.8-3.1-1.9-1.1-1-4.3-3.1-7.2-4.6-2.9-1.6-5.4-3.1-5.7-3.5-.3-.3-1.9-1.2-3.7-1.9-5.4-2.2-5.8-3.4-3.1-8.8 2.6-5.4 20.3-24 30-31.7 3.5-2.7 6.8-5.5 7.3-6 .6-.6 3.9-3.2 7.5-5.8s7-5.2 7.7-5.8c.7-.5 1.7-1 2.3-1 .5 0 1-.5 1-1 0-.6.5-1 1-1 .6 0 1.6-.5 2.3-1 8.2-6.9 29.2-20.7 42.2-27.7 8.7-4.7 12.1-5.2 16.3-2.6M563 701.7c4 7.8 7 12.2 17.1 24.8 5.3 6.6 10.8 14 12.4 16.5 1.5 2.5 3.1 4.7 3.5 5 1.7 1.3 10 14.8 10 16.3 0 3.9-8.3 23.6-10.2 24.5-.5.2-.8.9-.8 1.6 0 1.6-12.6 14.6-14.2 14.6-.6 0-1.9.6-2.7 1.3-.9.8-3.5 1.9-5.7 2.5-15.9 4.6-30.5-4.7-37.7-23.9-8.9-23.6-3.7-57.4 11.8-76.4 5.8-7.1 10.5-11.4 12.5-11.5.8 0 2.6 2.1 4 4.7m201.1 19c5.8 6.4 9.3 12.5 14 24.3 2 5.2 1.9 29.9-.3 36.5-3.6 11.1-9.6 20.6-18.3 28.7-24.5 22.9-63.9 22.3-87.5-1.2-9.5-9.6-13.8-16.9-17.4-30-3.2-11.8-3.4-17-.6-17 1.7 0 6.9-2.1 23-9.2 2.5-1.1 5.3-2.3 6.2-2.8s9.7-4.3 19.6-8.4c16.7-7 24.5-10.4 36.7-16.1 8.7-4.1 19-8.4 20.1-8.5.6 0 2.6 1.7 4.5 3.7"/></svg>